<svg xmlns="http://www.w3.org/2000/svg" width="1920" height="720" viewBox="0 0 1920 720">
  <defs>
    <linearGradient id="bgGrad" x1="0" y1="0" x2="1" y2="1">
      <stop offset="0" stop-color="#dc0000"/>
      <stop offset="1" stop-color="#a30000"/>
    </linearGradient>
  </defs>
  
      <rect width="1920" height="720" fill="url(#bgGrad)"/>
      <circle cx="1560" cy="120" r="340" fill="#ff2b2b" opacity="0.35"/>
      <circle cx="1720" cy="620" r="300" fill="#7a0000" opacity="0.5"/>
      <circle cx="250" cy="640" r="260" fill="#ff2b2b" opacity="0.25"/>
      <path d="M0 520 Q 480 460 960 540 T 1920 500 L 1920 720 L 0 720 Z" fill="#a30000" opacity="0.35"/>
    
  
      <g transform="translate(1430,140)">
        <rect x="0" y="0" width="320" height="420" rx="18" fill="rgba(255,255,255,0.12)" stroke="rgba(255,255,255,0.85)" stroke-width="8"/>
        <circle cx="160" cy="210" r="95" fill="none" stroke="rgba(255,255,255,0.85)" stroke-width="8"/>
        <rect x="90" y="202" width="140" height="16" rx="8" fill="rgba(255,255,255,0.85)"/>
        <rect x="134" y="90" width="52" height="40" rx="10" fill="rgba(255,255,255,0.85)"/>
        <rect x="0" y="438" width="260" height="22" rx="11" fill="rgba(255,255,255,0.85)" opacity="0.7"/>
      </g>
  <g><rect x="110" y="150" width="294" height="54" rx="27" fill="#ffffff"/><text x="138" y="187" font-size="26" font-weight="700" fill="#dc0000" font-family="'Segoe UI','Noto Sans Thai',sans-serif">รับฟรี!</text></g>
  <text x="112" y="118" font-size="22" font-weight="700" letter-spacing="4" fill="#ffe1e1" font-family="'Segoe UI','Noto Sans Thai',sans-serif">LG SUBSCRIBE</text>
  <text x="110" y="320" font-size="72" font-weight="800" fill="#ffffff" font-family="'Segoe UI','Noto Sans Thai',sans-serif">ซับ 1 แถม 1</text>
  <text x="112" y="442" font-size="24" font-weight="600" fill="#ffe1e1" font-family="'Segoe UI','Noto Sans Thai',sans-serif">1 ส.ค. 69 – 31 ส.ค. 69</text>
  <text x="112" y="482" font-size="26" fill="#ffffff" opacity="0.92" font-family="'Segoe UI','Noto Sans Thai',sans-serif">ซับ TV OLED 65" รับฟรี! Soundbar (มูลค่า 15,151.-)</text>
  <rect x="110" y="600" width="190" height="56" rx="28" fill="#ffd700"/>
  <text x="205" y="637" text-anchor="middle" font-size="22" font-weight="700" fill="#7a1f00" font-family="'Segoe UI','Noto Sans Thai',sans-serif">SUBSCRIBE เลย!</text>
</svg>